PathFileType	4	(X/Y/Z)	C:/Users/opensim2020/Desktop/walking_exp_matlab/subject06_walking12_straigt_04.trc																																																																																																																																														
DataRate	CameraRate	NumFrames	NumMarkers	Units	OrigDataRate	OrigDataStartFrame	OrigNumFrames																																																																																																																																										
100	100	5	48	mm	100	2811	181																																																																																																																																										
Frame#	Time	LFHD			RFHD			LBHD			RBHD			C7			T10			CLAV			STRN			RBAK			LSHO			LUPA			LELB			LFRM			LWRA			LWRB			LFIN			RSHO			RUPA			RELB			RFRM			RWRA			RWRB			RFIN			LASI			RASI			LPSI			RPSI			LTHI			LKNE			LTIB			LANK			LHEE			LTOE			RTHI			RKNE			RTIB			RANK			RHEE			RTOE			*39			*40			*41			*42			*43			*44			*45			*46			*47		
		X1	Y1	Z1	X2	Y2	Z2	X3	Y3	Z3	X4	Y4	Z4	X5	Y5	Z5	X6	Y6	Z6	X7	Y7	Z7	X8	Y8	Z8	X9	Y9	Z9	X10	Y10	Z10	X11	Y11	Z11	X12	Y12	Z12	X13	Y13	Z13	X14	Y14	Z14	X15	Y15	Z15	X16	Y16	Z16	X17	Y17	Z17	X18	Y18	Z18	X19	Y19	Z19	X20	Y20	Z20	X21	Y21	Z21	X22	Y22	Z22	X23	Y23	Z23	X24	Y24	Z24	X25	Y25	Z25	X26	Y26	Z26	X27	Y27	Z27	X28	Y28	Z28	X29	Y29	Z29	X30	Y30	Z30	X31	Y31	Z31	X32	Y32	Z32	X33	Y33	Z33	X34	Y34	Z34	X35	Y35	Z35	X36	Y36	Z36	X37	Y37	Z37	X38	Y38	Z38	X39	Y39	Z39	X40	Y40	Z40	X41	Y41	Z41	X42	Y42	Z42	X43	Y43	Z43	X44	Y44	Z44	X45	Y45	Z45	X46	Y46	Z46	X47	Y47	Z47	X48	Y48	Z48
																																																																																																																																																	
46	0.45	-1491.50415	1675.04468	645.90839	-1360.55029	1659.45313	648.51465	-1497.03809	1615.07507	777.09088	-1369.04504	1605.74805	778.80621	-1440.14526	1457.95325	775.21814	-1432.93591	1129.14465	806.41089	-1443.58496	1382.09424	663.28119	-1454.26868	1206.30042	624.93042	-1360.526	1286.13879	842.39362	-1602.41931	1413.40918	727.84229	-1673.07104	1211.62927	719.01422	-1685.17249	1099.67737	707.09521	-1706.66345	971.47961	629.95746	-1665.5553	899.74109	522.85895	-1698.12268	864.9848	575.6499	-1700.5321	814.58984	500.8504	-1280.49365	1412.04224	703.36957	-1193.80957	1214.7074	750.97266	-1183.89941	1092.31909	751.34741	-1168.01929	971.65021	747.25629	-1199.65039	826.99396	702.70654	-1159.69873	833.44824	756.52625	-1158.35498	754.02637	727.51617	-1551.31799	965.42365	638.37323	-1332.40466	979.11053	620.57043	-1511.74585	992.4173	792.42566	-1345.22473	1003.60297	773.474	-1603.34619	645.69281	691.83289	-1588.18616	483.55154	674.7204	-1580.23926	333.14725	868.16125	-1544.63953	224.67972	1000.06189	-1494.62463	244.55644	1030.61511	-1551.69141	86.00993	952.06531	-1271.57751	646.29138	646.18475	-1300.11768	523.15747	628.84271	-1302.91382	256.3941	662.65863	-1354.36816	72.07597	670.66766	-1400.87122	47.99226	708.30981	-1356.15295	36.71986	515.50488	-1433.90369	1707.60132	749.48358	NaN	NaN	NaN	NaN	NaN	NaN	NaN	NaN	NaN	NaN	NaN	NaN	NaN	NaN	NaN	NaN	NaN	NaN	NaN	NaN	NaN	NaN	NaN	NaN
47	0.46	-1491.0907	1675.73206	635.8092	-1360.14417	1660.255	638.14392	-1496.29712	1615.7804	767.08173	-1368.26489	1606.57629	768.48456	-1439.09998	1458.77942	765.13416	-1431.39758	1130.08484	796.50256	-1442.9563	1382.78406	653.39722	-1453.44812	1207.03894	615.03107	-1358.54529	1287.26038	832.19006	-1601.67993	1413.70715	718.43738	-1671.48816	1211.31055	711.39764	-1683.21167	1099.1322	701.18457	-1704.97241	968.53369	627.85474	-1665.40344	893.23682	522.61395	-1697.01062	860.1756	577.31219	-1700.7356	807.47888	504.28812	-1279.66797	1412.77344	692.45123	-1192.63635	1214.78357	737.16364	-1182.78479	1092.43518	736.1311	-1167.04797	971.86963	729.80157	-1199.39954	828.41388	682.70728	-1159.02954	833.52002	736.27899	-1157.99695	754.87695	705.49811	-1550.08167	966.40649	628.09473	-1331.26709	979.7085	611.42279	-1510.98828	993.16791	782.52899	-1344.34314	1004.31232	763.97089	-1602.57861	647.16266	676.72504	-1587.27356	485.53564	656.12317	-1578.93091	334.4595	847.98621	-1543.00745	224.64061	979.07507	-1492.68311	243.80371	1009.97882	-1550.61145	87.42628	928.18591	-1270.58655	646.12573	639.52588	-1299.4353	522.64319	624.52789	-1302.72913	256.32254	661.40076	-1354.55811	72.13984	670.505	-1401.0249	48.05135	708.27448	-1356.19214	36.57974	515.42407	-1433.30811	1708.38257	739.29468	NaN	NaN	NaN	NaN	NaN	NaN	NaN	NaN	NaN	NaN	NaN	NaN	NaN	NaN	NaN	NaN	NaN	NaN	NaN	NaN	NaN	NaN	NaN	NaN
48	0.47	-1490.82092	1676.24365	625.75415	-1359.76062	1660.93213	627.87354	-1495.88562	1616.53943	757.38007	-1367.57581	1607.37805	758.21332	-1438.06567	1459.48975	755.10712	-1430.03479	1130.9176	786.7113	-1442.31311	1383.43384	643.4859	-1452.59778	1207.72095	605.17175	-1356.69043	1288.29236	822.09338	-1600.93396	1414.04724	709.02502	-1670.11975	1211.24609	703.56885	-1681.28967	1098.7301	695.3703	-1703.42578	965.68799	626.09491	-1665.19019	886.89807	523.05292	-1695.41492	855.39777	579.11847	-1700.96179	800.66119	508.33658	-1278.87939	1413.52197	681.73712	-1191.57947	1214.90564	723.38507	-1181.74097	1092.63489	720.92468	-1166.17432	972.23682	712.24152	-1199.19226	829.95416	662.45715	-1158.43774	833.90283	715.79169	-1157.66101	756.01648	683.27521	-1548.74719	967.34332	617.78656	-1329.61292	980.34625	601.24011	-1510.11365	993.95453	772.61841	-1343.44836	1004.88049	754.4585	-1601.8606	648.60504	661.71008	-1586.4386	487.56244	637.66949	-1577.78479	334.67892	827.5647	-1541.68396	223.66502	957.55853	-1491.21558	241.76443	989.24176	-1549.51685	87.90726	902.96606	-1270.03662	645.97241	633.79553	-1298.73083	522.09198	620.45459	-1302.75061	256.30344	660.50775	-1354.88477	72.27867	670.34119	-1401.2865	48.19606	708.23541	-1356.2572	36.44943	515.31226	-1432.77698	1709.07715	729.06012	NaN	NaN	NaN	NaN	NaN	NaN	NaN	NaN	NaN	NaN	NaN	NaN	NaN	NaN	NaN	NaN	NaN	NaN	NaN	NaN	NaN	NaN	NaN	NaN
49	0.48	-1490.47009	1676.6897	615.70862	-1359.47986	1661.54297	617.43835	-1494.88794	1616.99146	747.11969	-1366.84473	1608.11194	747.94391	-1437.15857	1460.06396	745.18323	-1428.63586	1131.66064	776.97778	-1441.69739	1384.01965	633.54688	-1451.73779	1208.26587	595.36676	-1354.94861	1289.21777	812.03375	-1600.1178	1414.35925	699.51489	-1668.76868	1211.32056	695.63544	-1679.62024	1098.65808	689.61865	-1702.20959	963.11853	624.89716	-1664.85718	880.70929	524.07703	-1693.83093	851.00195	581.45209	-1701.14099	794.22125	512.95892	-1278.15393	1414.24048	671.12732	-1190.59595	1215.12146	709.77692	-1180.82056	1092.90417	705.72791	-1165.39465	972.77911	694.60303	-1199.07422	831.68622	642.10602	-1157.83643	834.50946	695.02551	-1157.35828	757.46179	660.94531	-1547.43445	968.44312	607.44165	-1328.1781	980.62311	591.88403	-1509.2583	994.74054	762.67834	-1342.47168	1005.34198	745.00751	-1601.18054	650.01959	646.83905	-1585.77393	489.70633	619.50781	-1576.70337	334.06058	806.84723	-1540.29553	221.05984	935.27112	-1489.74829	238.2182	967.54272	-1548.06506	87.13026	876.28009	-1269.51697	645.31543	628.62939	-1297.97559	521.48895	616.56226	-1302.69995	256.24918	659.82813	-1355.26929	72.40416	670.25702	-1401.5918	48.33334	708.18256	-1356.25903	36.34568	515.22845	-1432.29517	1709.66736	718.80017	NaN	NaN	NaN	NaN	NaN	NaN	NaN	NaN	NaN	NaN	NaN	NaN	NaN	NaN	NaN	NaN	NaN	NaN	NaN	NaN	NaN	NaN	NaN	NaN
50	0.49	-1490.39624	1677.12122	605.79425	-1359.3009	1662.07275	607.07074	-1494.54504	1617.60107	737.49792	-1366.1925	1608.80457	737.67047	-1436.13538	1460.56812	735.28522	-1427.42188	1132.29639	767.2865	-1441.08313	1384.50793	623.7312	-1450.87866	1208.71948	585.60797	-1353.27515	1289.97217	801.98425	-1599.3252	1414.72131	689.98444	-1667.53357	1211.42419	687.80487	-1677.96997	1098.65344	683.7851	-1700.75598	960.80481	623.62659	-1664.52686	874.75122	525.58728	-1692.87463	847.35492	584.66437	-1701.20789	788.11505	518.047	-1277.44812	1414.95203	660.63885	-1189.80261	1215.3844	696.51593	-1179.80811	1093.32971	690.76056	-1164.68481	973.44269	676.97247	-1199.15796	833.69861	621.54218	-1157.36157	835.24304	674.32599	-1157.13379	759.08765	638.50171	-1546.10437	969.39093	596.91162	-1326.72876	980.77917	582.52826	-1508.43079	995.52356	752.69507	-1341.5282	1005.56323	735.39954	-1600.2052	651.38824	631.80072	-1584.87598	491.81699	601.53436	-1575.36584	332.56476	785.71765	-1539.16699	217.30995	912.20258	-1488.61572	233.43954	945.34027	-1547.25269	86.21484	848.90057	-1269.13135	645.28088	622.61731	-1297.01721	520.91815	612.7677	-1302.53955	256.21283	659.03729	-1355.47937	72.50426	670.26569	-1401.8269	48.47643	708.12878	-1356.13721	36.2062	515.19037	-1431.88525	1710.22083	708.62	NaN	NaN	NaN	NaN	NaN	NaN	NaN	NaN	NaN	NaN	NaN	NaN	NaN	NaN	NaN	NaN	NaN	NaN	NaN	NaN	NaN	NaN	NaN	NaN
